<svg xmlns="http://www.w3.org/2000/svg" width="9" height="36" viewBox="0 0 9 36" fill="none">
  <path d="M8.21604 7.24087H1.46362C1.0838 7.24087 0.777832 5.83119 0.777832 4.08125C0.777832 2.33131 1.0838 0.921631 1.46362 0.921631H8.21604C8.59586 0.921631 8.90183 2.33131 8.90183 4.08125C8.90183 5.83119 8.59586 7.24087 8.21604 7.24087ZM8.90183 18.178C8.90183 16.4281 8.59586 15.0184 8.21604 15.0184H1.46362C1.0838 15.0184 0.777832 16.4281 0.777832 18.178C0.777832 19.928 1.0838 21.3376 1.46362 21.3376H8.21604C8.59586 21.3376 8.90183 19.928 8.90183 18.178ZM8.90183 32.2748C8.90183 30.5248 8.59586 29.1152 8.21604 29.1152H1.46362C1.0838 29.1152 0.777832 30.5248 0.777832 32.2748C0.777832 34.0247 1.0838 35.4344 1.46362 35.4344H8.21604C8.59586 35.4344 8.90183 34.0247 8.90183 32.2748Z" fill="black"/>
</svg>