<svg xmlns="http://www.w3.org/2000/svg" width="32" height="27" viewBox="0 0 32 27" fill="none">
  <path d="M28.1093 6.91447C28.1285 7.19597 28.1285 7.47753 28.1285 7.75903C28.1285 16.3452 21.8678 26.2384 10.425 26.2384C6.8997 26.2384 3.62487 25.1726 0.870117 23.3228C1.371 23.383 1.85255 23.4032 2.3727 23.4032C5.2815 23.4032 7.95922 22.3777 10.0975 20.6283C7.36204 20.5679 5.06963 18.6979 4.2798 16.124C4.66511 16.1843 5.05036 16.2245 5.45494 16.2245C6.01357 16.2245 6.57227 16.1441 7.09236 16.0034C4.24131 15.4001 2.10296 12.7861 2.10296 9.62908V9.54867C2.93127 10.0313 3.89455 10.3329 4.91546 10.3731C3.2395 9.20676 2.1415 7.21609 2.1415 4.96396C2.1415 3.75749 2.44966 2.65155 2.98909 1.68635C6.05206 5.62754 10.6562 8.20134 15.8188 8.4829C15.7225 8.0003 15.6647 7.49765 15.6647 6.99493C15.6647 3.41565 18.4387 0.5 21.887 0.5C23.6785 0.5 25.2966 1.28421 26.4332 2.55103C27.8395 2.26953 29.1879 1.72658 30.3823 0.982599C29.9199 2.49074 28.9375 3.75756 27.6469 4.56182C28.899 4.42114 30.1127 4.05911 31.2299 3.55646C30.3825 4.84332 29.3229 5.98944 28.1093 6.91447Z" fill="#00C5C5"/>
</svg>