<svg xmlns="http://www.w3.org/2000/svg" width="31" height="27" viewBox="0 0 31 27" fill="none">
  <path d="M29.7255 4.52719C29.3764 2.942 28.3476 1.69355 27.0414 1.26987C24.6738 0.5 15.18 0.5 15.18 0.5C15.18 0.5 5.6862 0.5 3.31854 1.26987C2.01232 1.69362 0.983565 2.942 0.6344 4.52719C0 7.40044 0 13.3952 0 13.3952C0 13.3952 0 19.39 0.6344 22.2632C0.983565 23.8484 2.01232 25.0448 3.31854 25.4685C5.6862 26.2384 15.18 26.2384 15.18 26.2384C15.18 26.2384 24.6737 26.2384 27.0414 25.4685C28.3476 25.0448 29.3764 23.8484 29.7255 22.2632C30.3599 19.39 30.3599 13.3952 30.3599 13.3952C30.3599 13.3952 30.3599 7.40044 29.7255 4.52719ZM12.0749 18.838V7.95241L20.0099 13.3953L12.0749 18.838Z" fill="#E60000"/>
</svg>